<svg version="1.1" id="Layer_1" xmlns="http://www.w3.org/2000/svg" xmlns:xlink="http://www.w3.org/1999/xlink" x="0px" y="0px"
	 width="100%" viewBox="0 0 672 672" enable-background="new 0 0 672 672" xml:space="preserve">
<path fill="#000000" opacity="1.000000" stroke="none" 
	d="
M360.000000,673.000000 
	C241.333359,673.000000 123.166695,672.980957 5.000155,673.095215 
	C1.576355,673.098511 0.904043,672.423706 0.905660,669.000000 
	C1.010214,447.666779 1.010221,226.333481 0.905693,5.000228 
	C0.904076,1.577068 1.575921,0.904027 4.999859,0.905645 
	C226.333115,1.010222 447.666412,1.010211 668.999634,0.905711 
	C672.422546,0.904095 673.096008,1.575554 673.094360,4.999740 
	C672.989807,226.332993 672.989807,447.666290 673.094299,668.999512 
	C673.095886,672.422180 672.425232,673.099426 669.000305,673.095520 
	C566.166931,672.978088 463.333466,673.000000 360.000000,673.000000 
z"/>
<path fill="#271493" opacity="1.000000" stroke="none" 
	d="
M405.508972,69.482948 
	C430.872559,90.666740 448.141083,116.420578 454.460388,148.921097 
	C457.549438,164.808090 456.300049,180.756088 455.425232,196.723694 
	C454.760681,208.853271 454.125427,220.998962 454.022308,233.142090 
	C453.692749,271.961151 453.423340,310.782745 453.499664,349.602631 
	C453.571075,385.914948 454.074524,422.226746 454.461182,458.537994 
	C454.725403,483.350159 455.099915,508.161163 455.454681,532.972290 
	C455.696838,549.907715 462.261230,564.202393 474.788788,575.314087 
	C503.321167,600.621582 537.408264,579.573547 544.914978,554.604004 
	C546.262085,550.123169 547.027527,545.570618 547.025269,540.846436 
	C546.986023,459.186188 546.959534,377.525879 547.101196,295.865875 
	C547.108704,291.521149 545.883301,289.499939 541.771179,287.894562 
	C511.149689,275.939911 492.748535,243.813110 497.065125,210.375565 
	C501.150665,178.727814 528.727051,151.752502 560.594055,148.231293 
	C599.396790,143.943695 636.701660,173.262711 641.748291,212.012772 
	C645.920654,244.050644 626.341736,276.608032 595.970642,287.893555 
	C592.839905,289.056885 591.393127,290.746063 591.435303,294.084808 
	C591.792542,322.395477 592.083435,350.707001 592.392700,379.018250 
	C592.414551,381.017883 592.444092,383.017670 592.437866,385.017303 
	C592.280884,435.171783 591.787842,485.328247 592.090942,535.479919 
	C592.256653,562.887268 583.968201,586.360107 564.336975,605.768066 
	C528.047852,641.644592 469.868408,639.349609 436.078491,601.049133 
	C420.198029,583.048889 412.919678,562.269470 411.905731,538.648315 
	C411.254791,523.484558 411.491730,508.333710 411.482605,493.179382 
	C411.418457,386.521149 411.455811,279.862823 411.444946,173.204544 
	C411.440399,128.425705 376.433136,91.614021 331.763641,91.079041 
	C288.423096,90.559990 255.270782,124.569191 251.011703,163.707718 
	C250.562653,167.834320 250.474213,172.015610 250.464981,176.172073 
	C250.412781,199.670120 250.369110,223.168671 250.494904,246.666138 
	C250.517456,250.881485 249.268997,252.440186 244.796280,252.404083 
	C220.299805,252.206360 195.800507,252.228317 171.302948,252.342484 
	C151.169098,252.436340 132.852875,258.091248 117.248764,271.174255 
	C77.117172,304.821960 78.748962,362.532562 115.498909,396.080750 
	C131.481689,410.671082 150.977524,415.889923 172.030380,416.365417 
	C235.840378,417.806610 299.660797,416.622711 363.475555,416.991394 
	C370.414520,417.031494 370.429199,417.004791 370.436554,424.140533 
	C370.447357,434.639709 370.341919,445.140106 370.483368,455.637360 
	C370.532654,459.294830 369.650665,460.952118 365.482117,460.944458 
	C300.654083,460.825531 235.824219,461.127625 170.998245,460.744873 
	C139.774307,460.560547 111.331284,451.429688 86.973862,431.094543 
	C44.035194,395.246460 29.556837,334.921783 52.739243,283.299622 
	C73.022545,238.133133 108.338112,212.520126 157.776520,207.311234 
	C173.097946,205.696960 188.369751,207.445251 203.383530,211.036560 
	C208.991043,212.377869 209.013260,212.343307 207.590378,206.747833 
	C198.484772,170.940521 202.742676,136.895844 222.189133,105.367264 
	C251.476791,57.883175 311.311066,33.869556 363.797150,47.966106 
	C379.130310,52.084232 392.948151,59.188374 405.508972,69.482948 
z"/>
<path fill="#000001" opacity="1.000000" stroke="none" 
	d="
M547.124268,260.990814 
	C529.180420,250.270813 520.837158,234.578476 523.287231,214.339493 
	C525.618713,195.080719 537.095276,182.142120 555.436218,176.031769 
	C575.575439,169.322281 597.618774,177.959091 608.667175,196.163498 
	C619.821960,214.543320 617.131531,237.493530 602.048706,252.621048 
	C587.155396,267.558472 566.898682,270.725830 547.124268,260.990814 
z"/>
</svg>