<svg version="1.1" id="Layer_1" xmlns="http://www.w3.org/2000/svg" xmlns:xlink="http://www.w3.org/1999/xlink" x="0px" y="0px"
	 width="100%" viewBox="0 0 3544 1259" enable-background="new 0 0 3544 1259" xml:space="preserve">
<path fill="#000000" opacity="1.000000" stroke="none" 
	d="
M2426.000000,1262.000000 
	C1617.333374,1262.000000 809.666687,1262.000000 2.000000,1262.000000 
	C2.000000,842.000000 2.000000,422.000000 2.000000,2.000000 
	C1183.333374,2.000000 2364.666748,2.000000 3546.000000,2.000000 
	C3546.000000,422.000000 3546.000000,842.000000 3546.000000,1262.000000 
	C3173.000000,1262.000000 2800.000000,1262.000000 2426.000000,1262.000000 
M744.028503,615.000122 
	C744.028442,610.667603 744.027039,606.335083 744.028503,602.002563 
	C744.045227,552.352051 744.645203,502.735016 746.738770,453.098267 
	C749.057373,398.126068 723.605225,356.680939 676.260376,331.096619 
	C631.800110,307.071075 586.864868,314.997223 547.005737,343.331421 
	C502.158569,375.211395 487.118256,420.591003 496.447876,474.389099 
	C497.043060,477.821320 497.540131,481.270538 498.233307,485.665863 
	C492.225403,484.592590 487.687836,483.734589 483.133575,482.977081 
	C468.227539,480.497803 453.249176,480.112427 438.335449,482.508606 
	C384.088135,491.224365 340.996857,536.330750 333.684753,590.526978 
	C326.055206,647.076355 355.257172,700.582703 407.698700,723.959167 
	C427.311676,732.701904 448.083344,735.020508 469.205688,735.061768 
	C528.536499,735.177551 587.867676,735.104309 647.198730,735.099670 
	C649.531433,735.099487 651.864441,734.997314 654.196838,735.013000 
	C658.716187,735.043396 660.948853,732.853821 660.952759,728.314819 
	C660.959656,720.315735 661.062500,712.316528 661.039734,704.317566 
	C661.002136,691.092041 660.973511,691.033875 647.668884,691.027710 
	C592.671021,691.002136 537.673035,691.066406 482.675354,690.964844 
	C473.020935,690.947021 463.323792,690.756531 453.721924,689.847717 
	C421.842346,686.830261 398.583893,670.945923 385.564941,641.567139 
	C372.755859,612.661926 375.811401,584.788879 394.604248,559.363892 
	C411.473724,536.540955 435.155640,526.641907 463.116180,526.425903 
	C485.114075,526.255859 507.114288,526.410095 529.113281,526.345703 
	C532.645020,526.335327 536.175598,525.933899 540.221497,525.681091 
	C540.539062,520.780090 541.000305,516.839600 541.015137,512.897400 
	C541.091736,492.565125 540.997620,472.232147 541.094421,451.900055 
	C541.119751,446.578522 541.327393,441.226013 541.938232,435.944061 
	C547.992920,383.584503 604.331848,350.522095 652.408936,371.994171 
	C684.544678,386.346588 701.763184,412.143921 701.855225,447.648315 
	C702.157715,564.309692 701.920227,680.972412 702.060791,797.634399 
	C702.073181,807.930542 702.694702,818.313293 704.112671,828.505676 
	C710.909424,877.362610 765.155212,921.907959 823.345703,899.979614 
	C858.179321,886.852844 881.277954,854.708557 881.996582,817.203613 
	C882.622192,784.555298 882.804382,751.897461 883.024231,719.242798 
	C883.165588,698.244751 883.133850,677.243896 882.975952,656.245850 
	C882.767944,628.589966 882.506042,600.932617 881.929932,573.282898 
	C881.794312,566.775330 883.887939,563.557068 890.058044,560.555603 
	C917.699097,547.109497 931.818604,524.810974 932.440247,493.712799 
	C933.275330,451.936493 890.234802,414.482147 845.742920,423.220154 
	C815.518250,429.156158 791.726685,454.521240 787.728638,484.547455 
	C783.534241,516.048279 799.124268,545.734192 827.327332,559.930054 
	C830.564270,561.559387 833.825256,563.141174 837.042053,564.728699 
	C837.265686,567.542114 837.608704,569.850037 837.609558,572.158081 
	C837.637939,652.821594 837.728088,733.485474 837.456848,814.148071 
	C837.435059,820.626099 835.891296,827.519409 833.353394,833.497375 
	C820.777100,863.121094 784.712036,869.683716 762.439514,846.557556 
	C751.870728,835.583679 746.175720,822.403687 746.025696,806.929626 
	C745.411743,743.619324 744.702820,680.309937 744.028503,615.000122 
M1609.054565,726.771240 
	C1609.054565,636.817078 1609.068848,546.862915 1609.015381,456.908752 
	C1609.012573,452.094543 1608.439575,447.280670 1608.092041,441.842651 
	C1591.950073,441.771606 1577.144775,441.194427 1562.161743,442.140228 
	C1559.160522,457.370728 1562.828003,472.045258 1559.367432,487.966034 
	C1554.840820,482.704346 1551.782471,478.829285 1548.396606,475.265320 
	C1525.467896,451.130615 1497.183716,439.407257 1464.057373,437.354218 
	C1405.150513,433.703308 1352.908203,466.174774 1332.210693,521.466797 
	C1317.039185,561.996643 1317.120850,603.262878 1332.268188,643.719543 
	C1370.978271,747.109863 1502.365234,755.057312 1554.991089,682.420166 
	C1555.959473,681.083557 1557.788696,680.370850 1559.356567,679.268311 
	C1559.974487,680.654968 1560.484009,681.261230 1560.477417,681.861877 
	C1560.226685,704.821350 1561.681885,727.968750 1559.238770,750.696533 
	C1555.269409,787.620361 1530.730469,813.183044 1495.154297,820.974854 
	C1481.329712,824.002747 1467.239990,824.035522 1453.411621,821.588379 
	C1422.040405,816.036743 1397.344238,801.104858 1384.783936,770.192688 
	C1384.294922,768.989319 1383.489380,767.914490 1382.778198,766.687988 
	C1367.818604,766.687988 1352.988892,766.687988 1337.163086,766.687988 
	C1337.862671,771.355469 1338.084595,775.302002 1339.072754,779.046326 
	C1348.575317,815.055542 1372.372803,838.403809 1405.911865,852.138367 
	C1441.213623,866.594849 1477.942627,868.566772 1514.758057,859.427917 
	C1550.497314,850.556091 1577.585083,829.571533 1594.518677,796.425354 
	C1605.370239,775.184448 1609.210693,752.350159 1609.054565,726.771240 
M1235.018921,441.667664 
	C1227.804443,441.738586 1220.589966,441.809509 1212.297729,441.891022 
	C1212.082275,457.868530 1211.884644,472.516907 1211.687012,487.165283 
	C1206.403931,483.478027 1203.218994,479.297028 1199.650269,475.474304 
	C1176.898071,451.102264 1148.630859,439.402893 1115.483398,437.365051 
	C1054.125732,433.593048 1000.981812,468.486206 981.253479,526.673218 
	C970.953735,557.051514 969.833923,588.117920 976.158752,619.359314 
	C988.039429,678.044495 1031.120239,723.028015 1091.566772,728.958069 
	C1138.202881,733.533264 1177.648682,719.522888 1206.959839,681.437561 
	C1207.851929,680.278442 1209.113770,679.403687 1211.979492,676.753723 
	C1211.979492,693.725342 1211.979492,708.529541 1211.979492,724.340149 
	C1228.558228,725.291992 1243.873901,725.899292 1259.297363,724.053345 
	C1259.297363,629.498413 1259.297363,536.381592 1259.297363,441.887115 
	C1251.410400,441.809540 1244.195557,441.738617 1235.018921,441.667664 
M2979.380127,601.140259 
	C3045.340820,601.130005 3111.301270,601.120178 3177.261963,601.108459 
	C3180.260254,601.107971 3183.262695,601.191833 3186.255859,601.061340 
	C3194.521973,600.700928 3195.752686,599.872375 3195.968994,591.898376 
	C3196.293213,579.938171 3196.763672,567.907898 3195.886475,556.002075 
	C3191.882324,501.650513 3155.795166,457.621552 3103.472656,442.699860 
	C3083.343262,436.959259 3062.737061,435.686188 3042.079346,438.128113 
	C2989.390381,444.356293 2950.898193,470.597504 2931.573242,520.878845 
	C2916.069580,561.217651 2916.011230,602.589050 2931.042969,643.095581 
	C2946.963867,685.998108 2977.846924,713.529663 3022.260742,725.213989 
	C3043.801025,730.880798 3065.768311,731.456055 3087.691406,727.813904 
	C3134.656006,720.011536 3168.280029,694.802612 3186.861572,650.503784 
	C3188.352539,646.949097 3189.110352,643.086914 3190.514160,638.333313 
	C3185.978516,638.060425 3182.726318,637.721436 3179.471436,637.695923 
	C3169.811279,637.619995 3160.124512,638.096863 3150.497314,637.526550 
	C3143.208008,637.094910 3139.305176,639.463867 3136.018311,646.326599 
	C3126.134033,666.965576 3109.623291,680.233643 3087.430420,686.161011 
	C3072.394531,690.176758 3057.212158,690.535461 3041.883789,687.845032 
	C3003.714600,681.145752 2973.738281,648.997131 2970.170166,610.775452 
	C2969.462402,603.194153 2969.709229,602.870850 2979.380127,601.140259 
M2650.020996,698.977173 
	C2660.908936,707.952271 2672.904297,715.021118 2686.091064,720.080139 
	C2712.587891,730.245361 2739.960449,732.302734 2767.714355,727.774109 
	C2814.724121,720.103577 2848.316895,694.733948 2866.879883,650.408813 
	C2868.363525,646.866577 2869.114014,643.017334 2870.459473,638.447083 
	C2866.235596,638.122803 2863.302246,637.725952 2860.366211,637.703186 
	C2850.035889,637.622864 2839.691650,637.982544 2829.378174,637.556458 
	C2822.910400,637.289246 2819.378906,639.315308 2816.425293,645.511292 
	C2805.183105,669.094849 2786.069092,682.903503 2760.486084,687.760254 
	C2747.930420,690.143860 2735.368896,690.093994 2722.714600,687.984314 
	C2684.433105,681.602234 2654.413330,650.119934 2650.279297,611.594177 
	C2649.971680,608.728271 2650.238770,605.800720 2650.238770,601.979858 
	C2655.535889,601.660583 2660.087402,601.151123 2664.639404,601.147400 
	C2729.291504,601.094482 2793.943359,601.110901 2858.595459,601.106445 
	C2861.594482,601.106201 2864.605713,601.229431 2867.590332,601.012268 
	C2874.430420,600.514587 2875.716553,599.547424 2875.909912,592.540222 
	C2876.240479,580.570374 2877.100098,568.471069 2875.845215,556.626587 
	C2870.329834,504.558655 2844.502930,466.826599 2795.313965,446.736389 
	C2773.314209,437.750977 2750.137939,436.231140 2726.558350,437.681366 
	C2668.802490,441.233612 2623.504883,477.090149 2607.375732,532.662537 
	C2600.117432,557.670044 2598.696777,583.166321 2602.281738,608.884705 
	C2607.192871,644.117615 2621.718994,674.439209 2650.020996,698.977173 
M2001.895752,603.131714 
	C2002.715454,608.726440 2003.165894,614.404907 2004.412598,619.902832 
	C2015.996704,670.990601 2045.546753,706.385681 2095.869629,722.954895 
	C2119.349365,730.685852 2143.621582,731.971069 2167.933350,727.799500 
	C2215.303467,719.671326 2250.942139,694.979126 2272.507324,651.471436 
	C2286.875244,622.483276 2290.054443,591.501099 2285.808350,559.918091 
	C2278.571289,506.089050 2250.659912,467.379578 2199.522217,446.937500 
	C2177.176270,438.004761 2153.753662,436.156372 2129.843994,437.697144 
	C2074.424805,441.268341 2028.023071,476.061249 2009.539062,528.426880 
	C2001.181763,552.103210 1999.636353,576.529297 2001.895752,603.131714 
M1940.718506,536.302124 
	C1940.423828,533.988525 1940.193970,531.664429 1939.824585,529.362854 
	C1934.272827,494.779266 1917.688477,467.652893 1886.427856,450.467194 
	C1869.077759,440.928955 1850.170044,436.906738 1830.698364,436.563080 
	C1796.262207,435.955383 1765.596191,445.582794 1742.031982,472.388641 
	C1740.687256,473.918427 1738.766602,474.941956 1735.294189,477.587799 
	C1735.294189,464.643799 1735.294189,453.805908 1735.294189,443.282684 
	C1723.217651,440.664978 1696.093506,441.133820 1688.601074,443.915222 
	C1688.601074,536.959473 1688.601074,630.131104 1688.601074,723.817322 
	C1702.693726,726.198730 1716.319214,724.987488 1729.886597,724.795349 
	C1733.749878,724.740662 1735.779663,722.171265 1735.650269,718.115173 
	C1735.565308,715.452881 1735.687134,712.784668 1735.687378,710.119080 
	C1735.692139,662.468567 1735.734497,614.817993 1735.666260,567.167603 
	C1735.646973,553.728760 1737.136353,540.544861 1741.685059,527.855835 
	C1751.268921,501.120239 1770.046021,484.729919 1798.002686,479.811218 
	C1807.405762,478.156799 1817.302490,477.703003 1826.811035,478.542328 
	C1860.974121,481.557922 1884.925293,502.921875 1891.854248,536.494812 
	C1893.924561,546.525940 1894.738037,556.970703 1894.804810,567.234558 
	C1895.108032,613.883484 1894.938232,660.535400 1894.941162,707.186279 
	C1894.941284,710.185181 1894.864380,713.188293 1894.991943,716.182251 
	C1895.324951,723.999817 1896.006470,724.868896 1903.647583,725.023987 
	C1913.639771,725.226807 1923.641113,725.163025 1933.634521,724.988708 
	C1936.156006,724.944763 1938.662720,724.044617 1942.031128,723.365601 
	C1942.031128,719.232178 1942.031128,715.617065 1942.031128,712.001953 
	C1942.030762,660.685974 1942.068115,609.369995 1941.983887,558.054138 
	C1941.973022,551.404358 1941.334595,544.755676 1940.718506,536.302124 
M2481.882568,573.271729 
	C2463.082520,567.589478 2444.247070,562.020691 2425.496582,556.179749 
	C2415.249268,552.987732 2405.633545,548.408936 2397.566162,541.109985 
	C2386.612793,531.199402 2383.347412,516.131775 2389.266846,502.794403 
	C2393.256592,493.804718 2400.336426,487.936432 2409.023682,483.846313 
	C2425.090088,476.282043 2442.043701,476.042908 2458.937012,479.277679 
	C2482.031250,483.699829 2497.123047,497.161530 2501.993408,520.852478 
	C2502.313477,522.408875 2502.963379,523.897400 2503.365723,525.129578 
	C2516.166016,527.402344 2542.241211,526.826172 2549.671631,524.038025 
	C2549.461426,521.252686 2549.441162,518.270935 2548.985107,515.357422 
	C2542.894531,476.444336 2519.305664,453.083771 2482.583984,442.293640 
	C2458.496582,435.216003 2433.846436,435.318756 2409.406250,440.776154 
	C2390.207764,445.063080 2373.221924,453.753845 2358.980957,467.743835 
	C2331.365967,494.872253 2331.244873,546.844299 2364.065430,571.490723 
	C2372.497070,577.822388 2381.722168,583.743835 2391.486084,587.511597 
	C2408.217041,593.967712 2425.725098,598.382080 2442.785156,604.021301 
	C2457.928711,609.027039 2473.274902,613.683960 2487.874023,620.012268 
	C2510.572021,629.851257 2509.979004,656.302124 2497.969971,670.565552 
	C2491.564697,678.173035 2483.462891,683.252319 2473.947266,686.013916 
	C2457.564209,690.768494 2441.048340,690.967102 2424.614746,686.529602 
	C2403.526611,680.835327 2388.337891,668.755310 2382.878174,646.588623 
	C2382.503662,645.068359 2381.617676,643.674072 2381.070557,642.447388 
	C2365.298096,642.447388 2350.119873,642.447388 2333.926270,642.447388 
	C2334.304932,647.153503 2334.202393,651.099121 2334.993164,654.856567 
	C2339.998779,678.636719 2353.405518,696.679077 2373.627686,709.687744 
	C2398.036621,725.389893 2425.243164,730.484009 2453.794434,729.730103 
	C2477.560791,729.102661 2500.104248,723.884521 2519.752441,709.812134 
	C2544.355225,692.191345 2555.250488,668.130127 2551.839844,637.949829 
	C2549.129883,613.967468 2534.969971,597.728943 2514.738525,586.638428 
	C2504.894043,581.241821 2493.876221,577.986328 2481.882568,573.271729 
z"/>
<path fill="#261492" opacity="1.000000" stroke="none" 
	d="
M744.028687,616.000183 
	C744.702820,680.309937 745.411743,743.619324 746.025696,806.929626 
	C746.175720,822.403687 751.870728,835.583679 762.439514,846.557556 
	C784.712036,869.683716 820.777100,863.121094 833.353394,833.497375 
	C835.891296,827.519409 837.435059,820.626099 837.456848,814.148071 
	C837.728088,733.485474 837.637939,652.821594 837.609558,572.158081 
	C837.608704,569.850037 837.265686,567.542114 837.042053,564.728699 
	C833.825256,563.141174 830.564270,561.559387 827.327332,559.930054 
	C799.124268,545.734192 783.534241,516.048279 787.728638,484.547455 
	C791.726685,454.521240 815.518250,429.156158 845.742920,423.220154 
	C890.234802,414.482147 933.275330,451.936493 932.440247,493.712799 
	C931.818604,524.810974 917.699097,547.109497 890.058044,560.555603 
	C883.887939,563.557068 881.794312,566.775330 881.929932,573.282898 
	C882.506042,600.932617 882.767944,628.589966 882.975952,656.245850 
	C883.133850,677.243896 883.165588,698.244751 883.024231,719.242798 
	C882.804382,751.897461 882.622192,784.555298 881.996582,817.203613 
	C881.277954,854.708557 858.179321,886.852844 823.345703,899.979614 
	C765.155212,921.907959 710.909424,877.362610 704.112671,828.505676 
	C702.694702,818.313293 702.073181,807.930542 702.060791,797.634399 
	C701.920227,680.972412 702.157715,564.309692 701.855225,447.648315 
	C701.763184,412.143921 684.544678,386.346588 652.408936,371.994171 
	C604.331848,350.522095 547.992920,383.584503 541.938232,435.944061 
	C541.327393,441.226013 541.119751,446.578522 541.094421,451.900055 
	C540.997620,472.232147 541.091736,492.565125 541.015137,512.897400 
	C541.000305,516.839600 540.539062,520.780090 540.221497,525.681091 
	C536.175598,525.933899 532.645020,526.335327 529.113281,526.345703 
	C507.114288,526.410095 485.114075,526.255859 463.116180,526.425903 
	C435.155640,526.641907 411.473724,536.540955 394.604248,559.363892 
	C375.811401,584.788879 372.755859,612.661926 385.564941,641.567139 
	C398.583893,670.945923 421.842346,686.830261 453.721924,689.847717 
	C463.323792,690.756531 473.020935,690.947021 482.675354,690.964844 
	C537.673035,691.066406 592.671021,691.002136 647.668884,691.027710 
	C660.973511,691.033875 661.002136,691.092041 661.039734,704.317566 
	C661.062500,712.316528 660.959656,720.315735 660.952759,728.314819 
	C660.948853,732.853821 658.716187,735.043396 654.196838,735.013000 
	C651.864441,734.997314 649.531433,735.099487 647.198730,735.099670 
	C587.867676,735.104309 528.536499,735.177551 469.205688,735.061768 
	C448.083344,735.020508 427.311676,732.701904 407.698700,723.959167 
	C355.257172,700.582703 326.055206,647.076355 333.684753,590.526978 
	C340.996857,536.330750 384.088135,491.224365 438.335449,482.508606 
	C453.249176,480.112427 468.227539,480.497803 483.133575,482.977081 
	C487.687836,483.734589 492.225403,484.592590 498.233307,485.665863 
	C497.540131,481.270538 497.043060,477.821320 496.447876,474.389099 
	C487.118256,420.591003 502.158569,375.211395 547.005737,343.331421 
	C586.864868,314.997223 631.800110,307.071075 676.260376,331.096619 
	C723.605225,356.680939 749.057373,398.126068 746.738770,453.098267 
	C744.645203,502.735016 744.045227,552.352051 744.028503,602.002563 
	C744.027039,606.335083 744.028442,610.667603 744.028687,616.000183 
M892.108215,527.108521 
	C893.860352,525.113464 895.789185,523.246094 897.336731,521.103271 
	C910.281616,503.178986 908.486938,478.555389 893.136597,462.460052 
	C877.704895,446.279449 853.756775,443.413147 834.762329,455.473328 
	C816.441833,467.105591 808.492920,490.438477 816.343689,510.577362 
	C829.606201,544.598755 870.835266,548.706421 892.108215,527.108521 
z"/>
<path fill="#261492" opacity="1.000000" stroke="none" 
	d="
M1609.053711,727.736267 
	C1609.210693,752.350159 1605.370239,775.184448 1594.518677,796.425354 
	C1577.585083,829.571533 1550.497314,850.556091 1514.758057,859.427917 
	C1477.942627,868.566772 1441.213623,866.594849 1405.911865,852.138367 
	C1372.372803,838.403809 1348.575317,815.055542 1339.072754,779.046326 
	C1338.084595,775.302002 1337.862671,771.355469 1337.163086,766.687988 
	C1352.988892,766.687988 1367.818604,766.687988 1382.778198,766.687988 
	C1383.489380,767.914490 1384.294922,768.989319 1384.783936,770.192688 
	C1397.344238,801.104858 1422.040405,816.036743 1453.411621,821.588379 
	C1467.239990,824.035522 1481.329712,824.002747 1495.154297,820.974854 
	C1530.730469,813.183044 1555.269409,787.620361 1559.238770,750.696533 
	C1561.681885,727.968750 1560.226685,704.821350 1560.477417,681.861877 
	C1560.484009,681.261230 1559.974487,680.654968 1559.356567,679.268311 
	C1557.788696,680.370850 1555.959473,681.083557 1554.991089,682.420166 
	C1502.365234,755.057312 1370.978271,747.109863 1332.268188,643.719543 
	C1317.120850,603.262878 1317.039185,561.996643 1332.210693,521.466797 
	C1352.908203,466.174774 1405.150513,433.703308 1464.057373,437.354218 
	C1497.183716,439.407257 1525.467896,451.130615 1548.396606,475.265320 
	C1551.782471,478.829285 1554.840820,482.704346 1559.367432,487.966034 
	C1562.828003,472.045258 1559.160522,457.370728 1562.161743,442.140228 
	C1577.144775,441.194427 1591.950073,441.771606 1608.092041,441.842651 
	C1608.439575,447.280670 1609.012573,452.094543 1609.015381,456.908752 
	C1609.068848,546.862915 1609.054565,636.817078 1609.053711,727.736267 
M1370.385986,594.021729 
	C1371.766113,601.888184 1372.550903,609.915405 1374.625488,617.594177 
	C1385.811890,658.997009 1420.315430,686.804932 1461.450928,687.977417 
	C1505.352051,689.228699 1541.582520,664.115845 1554.980225,622.439270 
	C1563.369263,596.343323 1563.363892,569.854614 1555.025024,543.747314 
	C1543.024292,506.176422 1511.741333,481.029785 1472.275391,478.741058 
	C1432.481689,476.433350 1401.622070,492.522675 1382.347534,528.178894 
	C1371.574097,548.109192 1369.024658,569.858276 1370.385986,594.021729 
z"/>
<path fill="#261492" opacity="1.000000" stroke="none" 
	d="
M1235.999756,441.667664 
	C1244.195557,441.738617 1251.410400,441.809540 1259.297363,441.887115 
	C1259.297363,536.381592 1259.297363,629.498413 1259.297363,724.053345 
	C1243.873901,725.899292 1228.558228,725.291992 1211.979492,724.340149 
	C1211.979492,708.529541 1211.979492,693.725342 1211.979492,676.753723 
	C1209.113770,679.403687 1207.851929,680.278442 1206.959839,681.437561 
	C1177.648682,719.522888 1138.202881,733.533264 1091.566772,728.958069 
	C1031.120239,723.028015 988.039429,678.044495 976.158752,619.359314 
	C969.833923,588.117920 970.953735,557.051514 981.253479,526.673218 
	C1000.981812,468.486206 1054.125732,433.593048 1115.483398,437.365051 
	C1148.630859,439.402893 1176.898071,451.102264 1199.650269,475.474304 
	C1203.218994,479.297028 1206.403931,483.478027 1211.687012,487.165283 
	C1211.884644,472.516907 1212.082275,457.868530 1212.297729,441.891022 
	C1220.589966,441.809509 1227.804443,441.738586 1235.999756,441.667664 
M1206.455811,544.850220 
	C1204.317505,539.621582 1202.621704,534.156006 1199.969604,529.202454 
	C1181.975464,495.593536 1153.466187,478.412079 1115.663208,478.605011 
	C1077.780884,478.798279 1049.376587,496.296722 1032.304443,530.484680 
	C1020.094116,554.936646 1018.973633,581.015991 1023.381897,607.508362 
	C1026.688843,627.382507 1035.208008,644.859009 1048.925781,659.656372 
	C1091.102295,705.152161 1179.630493,698.085449 1205.489746,624.013428 
	C1214.406494,598.472168 1214.229858,572.399841 1206.455811,544.850220 
z"/>
<path fill="#261492" opacity="1.000000" stroke="none" 
	d="
M2978.433350,601.162598 
	C2969.709229,602.870850 2969.462402,603.194153 2970.170166,610.775452 
	C2973.738281,648.997131 3003.714600,681.145752 3041.883789,687.845032 
	C3057.212158,690.535461 3072.394531,690.176758 3087.430420,686.161011 
	C3109.623291,680.233643 3126.134033,666.965576 3136.018311,646.326599 
	C3139.305176,639.463867 3143.208008,637.094910 3150.497314,637.526550 
	C3160.124512,638.096863 3169.811279,637.619995 3179.471436,637.695923 
	C3182.726318,637.721436 3185.978516,638.060425 3190.514160,638.333313 
	C3189.110352,643.086914 3188.352539,646.949097 3186.861572,650.503784 
	C3168.280029,694.802612 3134.656006,720.011536 3087.691406,727.813904 
	C3065.768311,731.456055 3043.801025,730.880798 3022.260742,725.213989 
	C2977.846924,713.529663 2946.963867,685.998108 2931.042969,643.095581 
	C2916.011230,602.589050 2916.069580,561.217651 2931.573242,520.878845 
	C2950.898193,470.597504 2989.390381,444.356293 3042.079346,438.128113 
	C3062.737061,435.686188 3083.343262,436.959259 3103.472656,442.699860 
	C3155.795166,457.621552 3191.882324,501.650513 3195.886475,556.002075 
	C3196.763672,567.907898 3196.293213,579.938171 3195.968994,591.898376 
	C3195.752686,599.872375 3194.521973,600.700928 3186.255859,601.061340 
	C3183.262695,601.191833 3180.260254,601.107971 3177.261963,601.108459 
	C3111.301270,601.120178 3045.340820,601.130005 2978.433350,601.162598 
M3037.378174,479.777679 
	C2997.698975,489.989075 2965.257324,530.272705 2971.901123,561.627808 
	C3029.962646,561.627808 3088.114014,561.627808 3145.866943,561.627808 
	C3146.576660,560.347656 3147.058105,559.815674 3147.165527,559.216614 
	C3147.398438,557.914246 3147.640625,556.561035 3147.531738,555.257629 
	C3145.189941,527.249695 3133.341797,504.780396 3108.641113,490.280060 
	C3086.965576,477.555573 3063.464600,475.248444 3037.378174,479.777679 
z"/>
<path fill="#261492" opacity="1.000000" stroke="none" 
	d="
M2649.477295,698.520020 
	C2621.718994,674.439209 2607.192871,644.117615 2602.281738,608.884705 
	C2598.696777,583.166321 2600.117432,557.670044 2607.375732,532.662537 
	C2623.504883,477.090149 2668.802490,441.233612 2726.558350,437.681366 
	C2750.137939,436.231140 2773.314209,437.750977 2795.313965,446.736389 
	C2844.502930,466.826599 2870.329834,504.558655 2875.845215,556.626587 
	C2877.100098,568.471069 2876.240479,580.570374 2875.909912,592.540222 
	C2875.716553,599.547424 2874.430420,600.514587 2867.590332,601.012268 
	C2864.605713,601.229431 2861.594482,601.106201 2858.595459,601.106445 
	C2793.943359,601.110901 2729.291504,601.094482 2664.639404,601.147400 
	C2660.087402,601.151123 2655.535889,601.660583 2650.238770,601.979858 
	C2650.238770,605.800720 2649.971680,608.728271 2650.279297,611.594177 
	C2654.413330,650.119934 2684.433105,681.602234 2722.714600,687.984314 
	C2735.368896,690.093994 2747.930420,690.143860 2760.486084,687.760254 
	C2786.069092,682.903503 2805.183105,669.094849 2816.425293,645.511292 
	C2819.378906,639.315308 2822.910400,637.289246 2829.378174,637.556458 
	C2839.691650,637.982544 2850.035889,637.622864 2860.366211,637.703186 
	C2863.302246,637.725952 2866.235596,638.122803 2870.459473,638.447083 
	C2869.114014,643.017334 2868.363525,646.866577 2866.879883,650.408813 
	C2848.316895,694.733948 2814.724121,720.103577 2767.714355,727.774109 
	C2739.960449,732.302734 2712.587891,730.245361 2686.091064,720.080139 
	C2672.904297,715.021118 2660.908936,707.952271 2649.477295,698.520020 
M2657.776367,562.312317 
	C2676.432861,562.323853 2695.089600,562.339966 2713.746094,562.345703 
	C2732.735840,562.351501 2751.725830,562.370361 2770.715576,562.340271 
	C2789.248779,562.310913 2807.782227,562.226990 2826.568848,562.166199 
	C2827.010498,558.874878 2827.631836,556.924377 2827.470459,555.040894 
	C2825.036621,526.654541 2812.926514,503.966827 2787.575928,489.729401 
	C2763.397461,476.150269 2737.525635,473.994141 2711.168213,481.495575 
	C2678.199951,490.878479 2653.746826,521.229614 2650.526367,555.055664 
	C2650.113525,559.391357 2650.826416,562.358643 2657.776367,562.312317 
z"/>
<path fill="#261492" opacity="1.000000" stroke="none" 
	d="
M2001.817627,602.233521 
	C1999.636353,576.529297 2001.181763,552.103210 2009.539062,528.426880 
	C2028.023071,476.061249 2074.424805,441.268341 2129.843994,437.697144 
	C2153.753662,436.156372 2177.176270,438.004761 2199.522217,446.937500 
	C2250.659912,467.379578 2278.571289,506.089050 2285.808350,559.918091 
	C2290.054443,591.501099 2286.875244,622.483276 2272.507324,651.471436 
	C2250.942139,694.979126 2215.303467,719.671326 2167.933350,727.799500 
	C2143.621582,731.971069 2119.349365,730.685852 2095.869629,722.954895 
	C2045.546753,706.385681 2015.996704,670.990601 2004.412598,619.902832 
	C2003.165894,614.404907 2002.715454,608.726440 2001.817627,602.233521 
M2146.579102,478.385162 
	C2098.178467,478.441895 2064.010010,504.331329 2053.128662,549.652588 
	C2047.836182,571.694763 2047.842651,594.055847 2052.911377,616.055542 
	C2059.444824,644.410950 2074.601562,666.872498 2101.779541,679.353210 
	C2150.552979,701.750977 2217.959961,681.043396 2234.630615,616.407959 
	C2240.650879,593.065002 2240.586914,569.400940 2233.841064,546.271179 
	C2224.647949,514.750183 2204.773682,492.699585 2172.864990,482.902588 
	C2164.981934,480.482330 2156.547363,479.859497 2146.579102,478.385162 
z"/>
<path fill="#261491" opacity="1.000000" stroke="none" 
	d="
M1940.852783,537.204285 
	C1941.334595,544.755676 1941.973022,551.404358 1941.983887,558.054138 
	C1942.068115,609.369995 1942.030762,660.685974 1942.031128,712.001953 
	C1942.031128,715.617065 1942.031128,719.232178 1942.031128,723.365601 
	C1938.662720,724.044617 1936.156006,724.944763 1933.634521,724.988708 
	C1923.641113,725.163025 1913.639771,725.226807 1903.647583,725.023987 
	C1896.006470,724.868896 1895.324951,723.999817 1894.991943,716.182251 
	C1894.864380,713.188293 1894.941284,710.185181 1894.941162,707.186279 
	C1894.938232,660.535400 1895.108032,613.883484 1894.804810,567.234558 
	C1894.738037,556.970703 1893.924561,546.525940 1891.854248,536.494812 
	C1884.925293,502.921875 1860.974121,481.557922 1826.811035,478.542328 
	C1817.302490,477.703003 1807.405762,478.156799 1798.002686,479.811218 
	C1770.046021,484.729919 1751.268921,501.120239 1741.685059,527.855835 
	C1737.136353,540.544861 1735.646973,553.728760 1735.666260,567.167603 
	C1735.734497,614.817993 1735.692139,662.468567 1735.687378,710.119080 
	C1735.687134,712.784668 1735.565308,715.452881 1735.650269,718.115173 
	C1735.779663,722.171265 1733.749878,724.740662 1729.886597,724.795349 
	C1716.319214,724.987488 1702.693726,726.198730 1688.601074,723.817322 
	C1688.601074,630.131104 1688.601074,536.959473 1688.601074,443.915222 
	C1696.093506,441.133820 1723.217651,440.664978 1735.294189,443.282684 
	C1735.294189,453.805908 1735.294189,464.643799 1735.294189,477.587799 
	C1738.766602,474.941956 1740.687256,473.918427 1742.031982,472.388641 
	C1765.596191,445.582794 1796.262207,435.955383 1830.698364,436.563080 
	C1850.170044,436.906738 1869.077759,440.928955 1886.427856,450.467194 
	C1917.688477,467.652893 1934.272827,494.779266 1939.824585,529.362854 
	C1940.193970,531.664429 1940.423828,533.988525 1940.852783,537.204285 
z"/>
<path fill="#261492" opacity="1.000000" stroke="none" 
	d="
M2482.635986,573.516602 
	C2493.876221,577.986328 2504.894043,581.241821 2514.738525,586.638428 
	C2534.969971,597.728943 2549.129883,613.967468 2551.839844,637.949829 
	C2555.250488,668.130127 2544.355225,692.191345 2519.752441,709.812134 
	C2500.104248,723.884521 2477.560791,729.102661 2453.794434,729.730103 
	C2425.243164,730.484009 2398.036621,725.389893 2373.627686,709.687744 
	C2353.405518,696.679077 2339.998779,678.636719 2334.993164,654.856567 
	C2334.202393,651.099121 2334.304932,647.153503 2333.926270,642.447388 
	C2350.119873,642.447388 2365.298096,642.447388 2381.070557,642.447388 
	C2381.617676,643.674072 2382.503662,645.068359 2382.878174,646.588623 
	C2388.337891,668.755310 2403.526611,680.835327 2424.614746,686.529602 
	C2441.048340,690.967102 2457.564209,690.768494 2473.947266,686.013916 
	C2483.462891,683.252319 2491.564697,678.173035 2497.969971,670.565552 
	C2509.979004,656.302124 2510.572021,629.851257 2487.874023,620.012268 
	C2473.274902,613.683960 2457.928711,609.027039 2442.785156,604.021301 
	C2425.725098,598.382080 2408.217041,593.967712 2391.486084,587.511597 
	C2381.722168,583.743835 2372.497070,577.822388 2364.065430,571.490723 
	C2331.244873,546.844299 2331.365967,494.872253 2358.980957,467.743835 
	C2373.221924,453.753845 2390.207764,445.063080 2409.406250,440.776154 
	C2433.846436,435.318756 2458.496582,435.216003 2482.583984,442.293640 
	C2519.305664,453.083771 2542.894531,476.444336 2548.985107,515.357422 
	C2549.441162,518.270935 2549.461426,521.252686 2549.671631,524.038025 
	C2542.241211,526.826172 2516.166016,527.402344 2503.365723,525.129578 
	C2502.963379,523.897400 2502.313477,522.408875 2501.993408,520.852478 
	C2497.123047,497.161530 2482.031250,483.699829 2458.937012,479.277679 
	C2442.043701,476.042908 2425.090088,476.282043 2409.023682,483.846313 
	C2400.336426,487.936432 2393.256592,493.804718 2389.266846,502.794403 
	C2383.347412,516.131775 2386.612793,531.199402 2397.566162,541.109985 
	C2405.633545,548.408936 2415.249268,552.987732 2425.496582,556.179749 
	C2444.247070,562.020691 2463.082520,567.589478 2482.635986,573.516602 
z"/>
<path fill="#000001" opacity="1.000000" stroke="none" 
	d="
M891.599060,527.613892 
	C870.835266,548.706421 829.606201,544.598755 816.343689,510.577362 
	C808.492920,490.438477 816.441833,467.105591 834.762329,455.473328 
	C853.756775,443.413147 877.704895,446.279449 893.136597,462.460052 
	C908.486938,478.555389 910.281616,503.178986 897.336731,521.103271 
	C895.789185,523.246094 893.860352,525.113464 891.599060,527.613892 
z"/>
<path fill="#000001" opacity="1.000000" stroke="none" 
	d="
M1370.332764,593.107605 
	C1369.024658,569.858276 1371.574097,548.109192 1382.347534,528.178894 
	C1401.622070,492.522675 1432.481689,476.433350 1472.275391,478.741058 
	C1511.741333,481.029785 1543.024292,506.176422 1555.025024,543.747314 
	C1563.363892,569.854614 1563.369263,596.343323 1554.980225,622.439270 
	C1541.582520,664.115845 1505.352051,689.228699 1461.450928,687.977417 
	C1420.315430,686.804932 1385.811890,658.997009 1374.625488,617.594177 
	C1372.550903,609.915405 1371.766113,601.888184 1370.332764,593.107605 
z"/>
<path fill="#000001" opacity="1.000000" stroke="none" 
	d="
M1206.724976,545.608459 
	C1214.229858,572.399841 1214.406494,598.472168 1205.489746,624.013428 
	C1179.630493,698.085449 1091.102295,705.152161 1048.925781,659.656372 
	C1035.208008,644.859009 1026.688843,627.382507 1023.381897,607.508362 
	C1018.973633,581.015991 1020.094116,554.936646 1032.304443,530.484680 
	C1049.376587,496.296722 1077.780884,478.798279 1115.663208,478.605011 
	C1153.466187,478.412079 1181.975464,495.593536 1199.969604,529.202454 
	C1202.621704,534.156006 1204.317505,539.621582 1206.724976,545.608459 
z"/>
<path fill="#000001" opacity="1.000000" stroke="none" 
	d="
M3038.214355,479.595184 
	C3063.464600,475.248444 3086.965576,477.555573 3108.641113,490.280060 
	C3133.341797,504.780396 3145.189941,527.249695 3147.531738,555.257629 
	C3147.640625,556.561035 3147.398438,557.914246 3147.165527,559.216614 
	C3147.058105,559.815674 3146.576660,560.347656 3145.866943,561.627808 
	C3088.114014,561.627808 3029.962646,561.627808 2971.901123,561.627808 
	C2965.257324,530.272705 2997.698975,489.989075 3038.214355,479.595184 
z"/>
<path fill="#000001" opacity="1.000000" stroke="none" 
	d="
M2656.870117,562.282288 
	C2650.826416,562.358643 2650.113525,559.391357 2650.526367,555.055664 
	C2653.746826,521.229614 2678.199951,490.878479 2711.168213,481.495575 
	C2737.525635,473.994141 2763.397461,476.150269 2787.575928,489.729401 
	C2812.926514,503.966827 2825.036621,526.654541 2827.470459,555.040894 
	C2827.631836,556.924377 2827.010498,558.874878 2826.568848,562.166199 
	C2807.782227,562.226990 2789.248779,562.310913 2770.715576,562.340271 
	C2751.725830,562.370361 2732.735840,562.351501 2713.746094,562.345703 
	C2695.089600,562.339966 2676.432861,562.323853 2656.870117,562.282288 
z"/>
<path fill="#000001" opacity="1.000000" stroke="none" 
	d="
M2147.472656,478.397766 
	C2156.547363,479.859497 2164.981934,480.482330 2172.864990,482.902588 
	C2204.773682,492.699585 2224.647949,514.750183 2233.841064,546.271179 
	C2240.586914,569.400940 2240.650879,593.065002 2234.630615,616.407959 
	C2217.959961,681.043396 2150.552979,701.750977 2101.779541,679.353210 
	C2074.601562,666.872498 2059.444824,644.410950 2052.911377,616.055542 
	C2047.842651,594.055847 2047.836182,571.694763 2053.128662,549.652588 
	C2064.010010,504.331329 2098.178467,478.441895 2147.472656,478.397766 
z"/>
</svg>